<svg width="30" height="30" viewBox="0 0 30 30" fill="none" xmlns="http://www.w3.org/2000/svg">
<path d="M21.25 10H23.75C24.413 10 25.0489 10.2634 25.5178 10.7322C25.9866 11.2011 26.25 11.837 26.25 12.5V20C26.25 20.663 25.9866 21.2989 25.5178 21.7678C25.0489 22.2366 24.413 22.5 23.75 22.5H21.25V27.5L16.25 22.5H11.25C10.9217 22.5003 10.5965 22.4358 10.2932 22.3101C9.98984 22.1844 9.71435 22 9.4825 21.7675M9.4825 21.7675L13.75 17.5H18.75C19.413 17.5 20.0489 17.2366 20.5178 16.7678C20.9866 16.2989 21.25 15.663 21.25 15V7.5C21.25 6.83696 20.9866 6.20107 20.5178 5.73223C20.0489 5.26339 19.413 5 18.75 5H6.25C5.58696 5 4.95107 5.26339 4.48223 5.73223C4.01339 6.20107 3.75 6.83696 3.75 7.5V15C3.75 15.663 4.01339 16.2989 4.48223 16.7678C4.95107 17.2366 5.58696 17.5 6.25 17.5H8.75V22.5L9.4825 21.7675Z" stroke="#4584FF" stroke-width="2.5" stroke-linecap="round" stroke-linejoin="round"/>
</svg>
