<svg width="30" height="30" viewBox="0 0 30 30" fill="none" xmlns="http://www.w3.org/2000/svg">
<path d="M15.8875 2.86248C15.7713 2.74532 15.633 2.65233 15.4807 2.58887C15.3284 2.52541 15.165 2.49274 15 2.49274C14.835 2.49274 14.6716 2.52541 14.5193 2.58887C14.367 2.65233 14.2287 2.74532 14.1125 2.86248L2.8625 14.1125C2.74534 14.2287 2.65235 14.3669 2.58889 14.5193C2.52542 14.6716 2.49275 14.835 2.49275 15C2.49275 15.165 2.52542 15.3284 2.58889 15.4807C2.65235 15.633 2.74534 15.7713 2.8625 15.8875C2.9793 16.0033 3.11782 16.095 3.27012 16.1572C3.42241 16.2194 3.58549 16.2509 3.75 16.25H5V25C5 25.663 5.26339 26.2989 5.73223 26.7678C6.20107 27.2366 6.83696 27.5 7.5 27.5H22.5C23.163 27.5 23.7989 27.2366 24.2678 26.7678C24.7366 26.2989 25 25.663 25 25V16.25H26.25C26.5815 16.25 26.8995 16.1183 27.1339 15.8839C27.3683 15.6494 27.5 15.3315 27.5 15C27.501 14.8355 27.4694 14.6724 27.4072 14.5201C27.345 14.3678 27.2534 14.2293 27.1375 14.1125L15.8875 2.86248ZM7.5 25V13.0125L15 5.51248L22.5 13.0125V25H7.5Z" fill="#4584FF"/>
</svg>
