<svg width="16" height="16" viewBox="0 0 16 16" fill="none" xmlns="http://www.w3.org/2000/svg">
<path d="M0.838736 15.4888C0.905161 15.4968 0.972311 15.4968 1.03874 15.4888L4.37207 14.6555C4.51994 14.6203 4.65538 14.5454 4.76374 14.4388L15.0054 4.16381C15.3158 3.85154 15.4901 3.42912 15.4901 2.98881C15.4901 2.5485 15.3158 2.12608 15.0054 1.81381L13.6887 0.488811C13.5339 0.33385 13.3501 0.210919 13.1478 0.127045C12.9455 0.0431711 12.7286 0 12.5096 0C12.2905 0 12.0737 0.0431711 11.8713 0.127045C11.669 0.210919 11.4852 0.33385 11.3304 0.488811L1.08874 10.7305C0.981059 10.8393 0.903525 10.9743 0.863736 11.1221L0.0304025 14.4555C0.000450779 14.5633 -0.00747676 14.6761 0.00709276 14.787C0.0216623 14.898 0.0584305 15.0048 0.115204 15.1013C0.171977 15.1977 0.247593 15.2817 0.33754 15.3483C0.427487 15.4149 0.529922 15.4627 0.638736 15.4888C0.705161 15.4968 0.772311 15.4968 0.838736 15.4888ZM12.5054 1.66381L13.8304 2.98881L12.5054 4.31381L11.1887 2.98881L12.5054 1.66381ZM2.4304 11.7471L10.0054 4.16381L11.3304 5.48881L3.74707 13.0721L1.98874 13.5055L2.4304 11.7471Z" fill="white"/>
</svg>
