<svg width="30" height="31" viewBox="0 0 30 31" fill="none" xmlns="http://www.w3.org/2000/svg">
<path d="M15 2.58334C8.09625 2.58334 2.5 8.36614 2.5 15.5C2.5 22.6339 8.09625 28.4167 15 28.4167C21.9037 28.4167 27.5 22.6339 27.5 15.5C27.5 8.36614 21.9037 2.58334 15 2.58334Z" stroke="#4584FF" stroke-width="2.5" stroke-linecap="round" stroke-linejoin="round"/>
<path d="M10 27.342V18.0834L15 9.04169L20 18.0834V27.342" stroke="#4584FF" stroke-width="2.5" stroke-linecap="round" stroke-linejoin="round"/>
<path d="M10 18.0834C10 18.0834 11.4087 19.375 12.5 19.375C13.5913 19.375 15 18.0834 15 18.0834C15 18.0834 16.4087 19.375 17.5 19.375C18.5913 19.375 20 18.0834 20 18.0834" stroke="#4584FF" stroke-width="2.5" stroke-linecap="round" stroke-linejoin="round"/>
</svg>
